<svg width="1920" height="740" viewBox="0 0 1920 740" fill="none" xmlns="http://www.w3.org/2000/svg">
<path d="M0 0H1920V740H0V0Z" fill="#003145"/>
<path fill-rule="evenodd" clip-rule="evenodd" d="M1325 740L1920 295.913V361L1414.3 740H1325Z" fill="white"/>
<path fill-rule="evenodd" clip-rule="evenodd" d="M1471.36 288.596C1446.52 288.596 1426.4 301.684 1426.4 317.852C1426.4 334.02 1446.52 347.108 1471.36 347.108C1496.2 347.108 1516.32 334.02 1516.32 317.852C1516.21 301.684 1496.09 288.596 1471.36 288.596Z" fill="#001F2C"/>
<path fill-rule="evenodd" clip-rule="evenodd" d="M1480.3 237.432C1455.46 237.432 1435.34 257.56 1435.34 282.416C1435.34 307.273 1455.46 327.4 1480.3 327.4C1505.14 327.4 1525.26 307.273 1525.26 282.416C1525.26 257.56 1505.14 237.432 1480.3 237.432Z" fill="#F7D55E"/>
<path fill-rule="evenodd" clip-rule="evenodd" d="M1480.3 237.432C1466.67 237.432 1454.36 243.591 1446.11 253.16C1445.67 255.8 1445.34 258.439 1445.34 261.189C1445.34 286.046 1465.46 306.173 1490.3 306.173C1503.93 306.173 1516.24 300.014 1524.49 290.445C1524.93 287.806 1525.26 285.166 1525.26 282.416C1525.26 257.56 1505.14 237.432 1480.3 237.432Z" fill="#FFE071"/>
<path fill-rule="evenodd" clip-rule="evenodd" d="M1442.37 306.384C1443.35 307.853 1444.32 309.323 1445.43 310.586C1446.56 309.681 1447.89 308.912 1449.23 308.143C1467.79 297.425 1491.3 303.41 1502.67 321.353L1502.86 321.243C1504.29 320.419 1505.66 319.499 1506.98 318.484C1494.14 298.215 1467.53 291.479 1446.59 303.571C1445.12 304.545 1443.74 305.465 1442.37 306.384ZM1456.22 244.413C1456.5 244.89 1456.72 245.271 1456.99 245.747C1469.42 267.274 1496.9 274.646 1518.42 262.225C1518.99 261.895 1519.47 261.621 1520.04 261.291C1519.76 260.815 1519.54 260.433 1519.27 259.957C1518.66 258.909 1518.06 257.862 1517.36 256.869C1516.88 257.144 1516.31 257.474 1515.83 257.748C1496.89 268.686 1472.56 262.159 1461.62 243.204C1461.4 242.823 1461.12 242.347 1460.9 241.966C1459.89 242.42 1458.94 242.97 1457.99 243.52C1457.27 243.809 1456.79 244.084 1456.22 244.413Z" fill="white"/>
<path fill-rule="evenodd" clip-rule="evenodd" d="M1697.36 321.596C1672.52 321.596 1652.4 334.684 1652.4 350.852C1652.4 367.02 1672.52 380.108 1697.36 380.108C1722.2 380.108 1742.32 367.02 1742.32 350.852C1742.21 334.684 1722.09 321.596 1697.36 321.596Z" fill="#001F2C"/>
<path fill-rule="evenodd" clip-rule="evenodd" d="M1705.3 272.432C1680.46 272.432 1660.34 292.56 1660.34 317.416C1660.34 342.273 1680.46 362.4 1705.3 362.4C1730.14 362.4 1750.26 342.273 1750.26 317.416C1750.26 292.56 1730.14 272.432 1705.3 272.432Z" fill="#F7D55E"/>
<path fill-rule="evenodd" clip-rule="evenodd" d="M1705.3 272.432C1691.67 272.432 1679.36 278.591 1671.11 288.16C1670.67 290.8 1670.34 293.439 1670.34 296.189C1670.34 321.046 1690.46 341.173 1715.3 341.173C1728.93 341.173 1741.24 335.014 1749.49 325.445C1749.93 322.806 1750.26 320.166 1750.26 317.416C1750.26 292.56 1730.14 272.432 1705.3 272.432Z" fill="#FFE071"/>
<path fill-rule="evenodd" clip-rule="evenodd" d="M1690.52 359.784C1692.2 360.329 1693.88 360.874 1695.53 361.174C1695.85 359.765 1696.42 358.334 1696.99 356.903C1704.87 336.971 1727.01 327.05 1747.07 334.04L1747.15 333.836C1747.76 332.302 1748.26 330.729 1748.66 329.115C1726 321.216 1700.97 332.473 1692.08 354.961C1691.53 356.637 1691.03 358.211 1690.52 359.784ZM1662.87 302.625C1663.38 302.827 1663.79 302.989 1664.3 303.191C1687.41 312.334 1713.53 301.031 1722.66 277.93C1722.91 277.317 1723.11 276.806 1723.35 276.192C1722.84 275.99 1722.43 275.828 1721.92 275.626C1720.79 275.181 1719.67 274.736 1718.5 274.393C1718.3 274.904 1718.06 275.518 1717.86 276.029C1709.81 296.37 1686.69 306.375 1666.34 298.325C1665.93 298.163 1665.42 297.961 1665.01 297.799C1664.5 298.781 1664.1 299.803 1663.7 300.825C1663.31 301.5 1663.11 302.011 1662.87 302.625Z" fill="white"/>
<path fill-rule="evenodd" clip-rule="evenodd" d="M1425.93 490.225C1400.55 490.225 1380 503.596 1380 520.112C1380 536.629 1400.55 550 1425.93 550C1451.31 550 1471.86 536.629 1471.86 520.112C1471.75 503.596 1451.2 490.225 1425.93 490.225Z" fill="#001F2C"/>
<path fill-rule="evenodd" clip-rule="evenodd" d="M1434.21 439C1408.84 439 1388.29 459.562 1388.29 484.955C1388.29 510.348 1408.84 530.91 1434.21 530.91C1459.59 530.91 1480.14 510.348 1480.14 484.955C1480.14 459.562 1459.59 439 1434.21 439Z" fill="#F7D55E"/>
<path fill-rule="evenodd" clip-rule="evenodd" d="M1434.21 439C1420.29 439 1407.71 445.292 1399.29 455.067C1398.84 457.764 1398.5 460.461 1398.5 463.27C1398.5 488.663 1419.05 509.225 1444.43 509.225C1458.35 509.225 1470.93 502.933 1479.35 493.157C1479.8 490.461 1480.14 487.764 1480.14 484.955C1480.14 459.562 1459.59 439 1434.21 439Z" fill="#FFE071"/>
<path fill-rule="evenodd" clip-rule="evenodd" d="M1388.39 486.753C1388.5 488.55 1388.62 490.348 1388.95 492.034C1390.41 491.809 1391.99 491.809 1393.56 491.809C1415.46 491.809 1433.2 509.112 1434.1 530.798H1434.32C1436.01 530.798 1437.69 530.685 1439.37 530.461C1438.36 505.966 1418.26 486.416 1393.56 486.416C1391.76 486.528 1390.08 486.64 1388.39 486.753ZM1432.3 439C1432.3 439.562 1432.3 440.011 1432.3 440.573C1432.3 465.966 1452.85 486.528 1478.23 486.528C1478.9 486.528 1479.46 486.528 1480.14 486.528C1480.14 485.966 1480.14 485.517 1480.14 484.955C1480.14 483.719 1480.14 482.483 1480.03 481.247C1479.46 481.247 1478.79 481.247 1478.23 481.247C1455.88 481.247 1437.69 463.045 1437.69 440.685C1437.69 440.236 1437.69 439.674 1437.69 439.225C1436.57 439.113 1435.44 439.112 1434.32 439.112C1433.54 439 1432.97 439 1432.3 439Z" fill="white"/>
<path d="M474.619 329.19C460.647 323.194 453.248 315.523 452.42 306.175C451.74 296.891 458.073 287.262 471.418 277.29L548.376 219.78C564.96 207.387 581.253 199.67 597.254 196.63C613.256 193.59 629.357 195.546 645.558 202.498C659.678 208.557 667.68 215.954 669.564 224.688C671.447 233.421 666.041 242.533 653.344 252.021L624.581 273.515L586.457 257.155L611.138 238.711C615.932 235.128 618.567 232.372 619.043 230.443C619.519 228.513 618.122 226.847 614.852 225.444C611.434 223.977 608.019 223.731 604.609 224.706C601.347 225.745 597.707 227.765 593.691 230.766L509.931 293.36C505.526 296.652 503.03 299.391 502.443 301.578C501.986 303.668 503.244 305.351 506.216 306.626C512.162 309.178 519.345 307.307 527.766 301.013L557.889 278.503L596.459 295.054L564.976 318.581C536.991 339.494 506.872 343.03 474.619 329.19ZM581.329 374.982C565.872 368.348 558.211 360.26 558.347 350.716C558.613 341.076 566.195 330.688 581.095 319.554L660.58 260.156C674.961 249.409 689.792 243.046 705.074 241.069C720.485 238.994 735.919 241.274 751.377 247.907C766.835 254.54 774.884 262.338 775.525 271.301C776.296 280.167 769.491 289.974 755.11 300.721L675.625 360.119C660.596 371.35 644.987 378.293 628.799 380.949C612.61 383.604 596.787 381.615 581.329 374.982ZM612.035 352.036C615.454 353.503 619.053 353.523 622.833 352.097C626.614 350.671 630.836 348.215 635.5 344.73L717.123 283.734C720.75 281.023 723.071 278.589 724.084 276.433C725.376 274.244 724.313 272.416 720.894 270.949C714.503 268.206 707.097 269.982 698.675 276.275L617.247 337.125C612.453 340.708 609.494 343.706 608.37 346.119C607.246 348.533 608.468 350.505 612.035 352.036ZM645.606 400.735L812.544 275.984L870.956 301.05L785.175 384.038L903.061 314.827L961.919 340.085L794.981 464.836L759.978 449.815L880.275 359.919L737.906 440.344L703.572 425.61L800.459 325.668L680.163 415.565L645.606 400.735ZM810.163 471.351L977.101 346.6L1014.11 362.481L847.172 487.232L810.163 471.351ZM862.458 493.792L1029.4 369.041L1068.86 385.975L1006.6 453.222L1086.47 393.533L1123.48 409.415L956.542 534.166L919.087 518.093L983.48 447.417L899.913 509.865L862.458 493.792ZM1011.4 559.537C997.581 553.605 991.462 546.026 993.046 536.799C994.909 527.539 1004.46 516.47 1021.69 503.593L1093.59 449.859C1109.01 438.337 1124.61 431.314 1140.39 428.788C1156.17 426.263 1171.86 428.348 1187.47 435.046C1200.1 440.467 1207.71 446.322 1210.29 452.612C1212.87 458.902 1211.29 465.767 1205.54 473.208C1199.8 480.65 1190.32 489.308 1177.1 499.184L1139.65 483.111L1154.61 471.928C1158.63 468.927 1161.07 466.316 1161.93 464.096C1162.95 461.94 1161.82 460.16 1158.55 458.757C1151.27 455.632 1143.48 457.167 1135.19 463.364L1054.34 523.779C1049.29 527.554 1046.21 530.73 1045.1 533.304C1044 535.878 1045.31 537.962 1049.02 539.557C1052.74 541.151 1056.63 541.299 1060.71 540.001C1064.79 538.702 1069.35 536.165 1074.41 532.389L1098.31 514.526L1088.05 510.125L1116.82 488.631L1163.64 508.723L1066.47 581.337L1051.08 574.735L1058.61 561.504C1041.41 566.316 1025.67 565.66 1011.4 559.537ZM238.403 506.761C221.013 499.298 212.21 491.101 211.996 482.169C211.782 473.237 220.031 462.526 236.744 450.036L253.069 437.837L290.747 454.006L269.953 469.545C261.661 475.742 260.562 480.147 266.656 482.762C270.074 484.229 273.295 484.621 276.317 483.936C279.468 483.155 283.117 481.215 287.263 478.117C292.704 474.05 296.431 470.391 298.443 467.139C300.584 463.79 301.632 460.734 301.586 457.971C301.818 455.175 301.488 450.613 300.595 444.286L298.478 426.459C296.579 412.841 302.237 401.094 315.452 391.219C329.704 380.569 344.238 374.079 359.054 371.749C374.149 369.387 388.905 371.299 403.322 377.486C420.564 384.884 428.958 393.212 428.506 402.467C428.183 411.626 419.535 422.547 402.563 435.23L363.547 418.488L374.79 409.823C376.992 408.178 377.998 406.552 377.807 404.946C377.765 403.403 376.481 402.09 373.954 401.006C370.982 399.73 368.039 399.306 365.128 399.733C362.217 400.16 359.53 401.294 357.068 403.133C351.627 407.2 349.558 412.942 350.862 420.36L354.5 443.87C355.298 449.394 355.397 454.39 354.799 458.858C354.331 463.23 352.417 467.895 349.056 472.855C345.825 477.717 340.517 482.908 333.132 488.426C316.678 500.722 300.682 508.567 285.146 511.959C269.887 515.318 254.306 513.585 238.403 506.761ZM341.391 550.956C325.933 544.322 318.272 536.234 318.408 526.69C318.674 517.049 326.257 506.662 341.156 495.528L420.641 436.129C435.022 425.383 449.854 419.02 465.135 417.043C480.546 414.968 495.981 417.248 511.438 423.881C526.896 430.514 534.946 438.312 535.587 447.275C536.358 456.141 529.552 465.948 515.171 476.695L435.686 536.093C420.657 547.324 405.049 554.267 388.86 556.922C372.672 559.578 356.849 557.589 341.391 550.956ZM372.097 528.01C375.515 529.476 379.114 529.497 382.895 528.071C386.675 526.645 390.897 524.189 395.561 520.703L477.184 459.708C480.812 456.997 483.132 454.563 484.146 452.407C485.438 450.218 484.374 448.39 480.956 446.923C474.564 444.18 467.158 445.955 458.737 452.249L377.308 513.099C372.514 516.681 369.556 519.679 368.432 522.093C367.308 524.507 368.529 526.479 372.097 528.01ZM449.817 597.484C434.359 590.851 426.698 582.762 426.834 573.218C427.1 563.578 434.683 553.19 449.582 542.056L529.067 482.658C543.448 471.911 558.28 465.549 573.561 463.571C588.972 461.496 604.407 463.776 619.864 470.409C635.322 477.042 643.372 484.84 644.013 493.803C644.784 502.669 637.979 512.476 623.597 523.223L544.112 582.621C529.083 593.852 513.475 600.795 497.286 603.451C481.098 606.106 465.275 604.117 449.817 597.484ZM480.523 574.538C483.941 576.005 487.541 576.025 491.321 574.599C495.101 573.173 499.323 570.717 503.987 567.232L585.61 506.236C589.238 503.525 591.559 501.091 592.572 498.935C593.864 496.746 592.8 494.918 589.382 493.451C582.991 490.708 575.584 492.484 567.163 498.777L485.734 559.627C480.941 563.21 477.982 566.208 476.858 568.621C475.734 571.035 476.955 573.007 480.523 574.538ZM514.093 623.237L681.031 498.486L720.493 515.42L658.233 582.667L738.106 522.978L775.116 538.86L608.178 663.611L570.722 647.538L635.115 576.862L551.549 639.31L514.093 623.237Z" fill="white"/>
<path d="M675.694 156.095L707.446 127.134L715.569 130.619L695.048 148.684L720.21 132.611L727.945 135.93L707.328 153.954L732.393 137.839L740.612 141.366L699.867 166.468L689.907 162.194L705.276 148.264L685.846 160.452L675.694 156.095ZM716.302 173.918C712.66 172.355 710.92 170.583 711.083 168.604C711.245 166.625 713.054 164.344 716.51 161.761L728.9 152.502C731.738 150.382 734.836 149.166 738.194 148.856C741.552 148.545 744.908 149.109 748.26 150.548C755.061 153.466 755.553 157.098 749.737 161.444L747.504 163.113C745.256 164.793 743.398 166.144 741.929 167.166L729.648 161.896L723.664 166.368C722.597 167.166 721.883 167.851 721.522 168.424C721.19 168.975 721.443 169.431 722.281 169.79C722.926 170.067 723.546 170.135 724.141 169.993C724.768 169.866 725.308 169.652 725.762 169.351C726.276 169.042 726.954 168.573 727.797 167.943L730.789 165.707L739.202 169.317L737.432 170.64C733.835 173.327 730.375 174.966 727.049 175.555C723.784 176.137 720.202 175.591 716.302 173.918ZM737.279 160.858L741.241 157.897C743.46 156.239 743.942 155.14 742.685 154.6C741.266 153.992 739.447 154.517 737.228 156.175L733.267 159.136L737.279 160.858ZM778.077 157.195L786.78 160.93L778.182 167.354C781.333 166.062 784.181 165.962 786.727 167.055C789.112 168.078 790.257 169.346 790.161 170.859C790.065 172.371 788.866 173.988 786.562 175.71L762.793 193.472L754.333 189.841L777.638 172.425C778.312 171.921 778.682 171.436 778.749 170.969C778.816 170.502 778.511 170.123 777.834 169.833C777.254 169.584 776.562 169.551 775.758 169.735C775.014 169.911 774.333 170.231 773.715 170.693L750.368 188.14L741.666 184.405L778.077 157.195ZM772.168 197.891C769.429 196.715 768.33 195.318 768.872 193.7C769.474 192.075 771.25 190.16 774.2 187.955C776.616 186.15 778.825 184.916 780.826 184.255C782.86 183.607 784.817 183.339 786.696 183.452C788.603 183.543 791.244 183.883 794.617 184.471L797.612 184.963L797.696 184.9L800.773 182.601C801.587 181.992 802.012 181.447 802.047 180.966C802.142 180.478 801.931 180.124 801.416 179.902C800.964 179.709 800.379 179.672 799.659 179.793C798.972 179.928 798.319 180.226 797.701 180.688L795.846 182.073L787.628 178.547L788.639 177.791C791.673 175.523 794.642 174.252 797.546 173.978C800.482 173.718 803.788 174.376 807.462 175.953C810.395 177.211 812.106 178.739 812.594 180.535C813.111 182.31 812.147 184.111 809.703 185.937L786.187 203.51L777.775 199.901L781.442 197.161C779.758 197.926 778.098 198.37 776.461 198.494C774.856 198.631 773.425 198.431 772.168 197.891ZM781.235 195.04C781.88 195.316 782.556 195.342 783.263 195.117C784.031 194.884 784.752 194.516 785.426 194.012L794.024 187.588C792.345 187.363 790.877 187.361 789.618 187.581C788.392 187.815 787.203 188.362 786.051 189.223L782.089 192.183C780.263 193.548 779.978 194.5 781.235 195.04ZM793.942 206.838L819.134 181.358L827.595 184.989L813.742 197.388L809.017 201.26L814.413 197.626L831.898 186.835L840.358 190.466L803.756 211.05L793.942 206.838ZM821.305 218.977C817.662 217.414 815.923 215.643 816.085 213.663C816.248 211.684 818.057 209.403 821.513 206.82L833.903 197.561C836.74 195.441 839.838 194.225 843.197 193.915C846.555 193.604 849.91 194.168 853.262 195.607C860.063 198.525 860.556 202.157 854.74 206.503L852.506 208.172C850.259 209.852 848.4 211.203 846.931 212.225L834.651 206.955L828.667 211.427C827.599 212.225 826.885 212.91 826.525 213.483C826.193 214.034 826.446 214.49 827.284 214.85C827.928 215.126 828.548 215.194 829.143 215.053C829.77 214.925 830.311 214.711 830.765 214.41C831.279 214.101 831.957 213.632 832.8 213.003L835.792 210.767L844.204 214.377L842.434 215.699C838.838 218.387 835.377 220.025 832.052 220.614C828.787 221.196 825.204 220.65 821.305 218.977ZM842.282 205.917L846.243 202.956C848.463 201.298 848.944 200.199 847.687 199.659C846.269 199.051 844.45 199.576 842.231 201.234L838.269 204.195L842.282 205.917ZM877.517 206.412L885.784 209.959L882.202 212.636C883.909 211.815 885.553 211.364 887.134 211.282C888.715 211.2 890.36 211.526 892.068 212.259C893.454 212.854 894.366 213.576 894.803 214.424C895.3 215.266 895.281 216.133 894.745 217.027C896.522 216.533 898.084 216.295 899.432 216.311C900.808 216.307 902.269 216.637 903.816 217.301C906.588 218.49 907.761 219.869 907.336 221.439C906.971 223.001 905.384 224.831 902.574 226.931L879.931 243.738L871.422 240.087L894.095 223.143C896.09 221.653 896.507 220.659 895.346 220.161C894.541 219.815 893.609 219.828 892.552 220.201C891.524 220.553 890.532 221.086 889.576 221.799L867.409 238.365L858.949 234.734L881.621 217.791C882.492 217.14 883.082 216.567 883.39 216.071C883.731 215.589 883.562 215.203 882.885 214.912C882.015 214.539 881.024 214.56 879.91 214.974C878.825 215.368 877.763 215.953 876.724 216.73L854.936 233.012L846.669 229.464L877.517 206.412ZM893.267 249.857C886.208 246.828 885.868 242.931 892.245 238.165L904.635 228.906C907.557 226.723 910.81 225.392 914.393 224.913C918.037 224.427 921.502 224.89 924.79 226.301C928.077 227.712 929.785 229.469 929.912 231.573C930.1 233.67 928.733 235.81 925.811 237.993L913.421 247.252C907.044 252.018 900.325 252.886 893.267 249.857ZM898.956 245.606C899.633 245.896 900.343 245.953 901.087 245.777C901.831 245.6 902.568 245.239 903.298 244.693L918.385 233.418C920.184 232.075 920.422 231.119 919.1 230.552C917.779 229.985 916.219 230.374 914.421 231.717L899.334 242.992C898.603 243.538 898.189 244.037 898.09 244.49C897.99 244.944 898.279 245.315 898.956 245.606ZM938.186 232.446L946.647 236.077L943.233 238.628C944.86 237.905 946.513 237.523 948.19 237.483C949.928 237.435 951.571 237.744 953.118 238.408L946.965 243.005C945.773 242.494 944.297 242.042 942.537 241.651C940.838 241.252 939.792 241.2 939.398 241.494L915.798 259.13L907.338 255.499L938.186 232.446ZM933.531 267.136C929.889 265.573 928.149 263.802 928.312 261.822C928.474 259.843 930.283 257.562 933.739 254.979L946.129 245.72C948.967 243.6 952.065 242.384 955.423 242.074C958.781 241.763 962.137 242.327 965.489 243.766C972.289 246.684 972.782 250.316 966.966 254.662L964.733 256.331C962.485 258.011 960.627 259.362 959.157 260.384L946.877 255.114L940.893 259.586C939.826 260.384 939.112 261.069 938.751 261.642C938.419 262.193 938.672 262.649 939.51 263.009C940.155 263.285 940.775 263.353 941.37 263.212C941.997 263.084 942.537 262.87 942.991 262.569C943.505 262.26 944.183 261.791 945.026 261.162L948.018 258.926L956.431 262.535L954.661 263.858C951.064 266.546 947.604 268.184 944.278 268.773C941.013 269.355 937.431 268.809 933.531 267.136ZM954.508 254.076L958.47 251.115C960.689 249.457 961.171 248.358 959.913 247.818C958.495 247.21 956.676 247.735 954.457 249.393L950.496 252.354L954.508 254.076ZM983.563 260.099L982.065 259.456L987.718 255.288L989.168 255.91L991.276 254.336C994.591 251.858 998.15 251.436 1001.95 253.068C1003.76 253.842 1005.01 254.612 1005.71 255.376L1001.16 258.777C1000.92 258.576 1000.71 258.433 1000.52 258.35C1000.06 258.157 999.634 258.137 999.224 258.292C998.814 258.447 998.328 258.734 997.767 259.154L997.387 259.437L999.224 260.226L993.535 264.477L991.891 263.772L968.081 281.565L959.668 277.955L983.563 260.099ZM982.406 288.109C975.347 285.08 975.007 281.183 981.384 276.417L993.774 267.158C996.696 264.974 999.949 263.643 1003.53 263.165C1007.18 262.679 1010.64 263.142 1013.93 264.552C1017.22 265.963 1018.92 267.721 1019.05 269.824C1019.24 271.921 1017.87 274.061 1014.95 276.245L1002.56 285.504C996.182 290.27 989.464 291.138 982.406 288.109ZM988.095 283.858C988.772 284.148 989.482 284.205 990.226 284.028C990.97 283.852 991.707 283.49 992.437 282.945L1007.52 271.67C1009.32 270.326 1009.56 269.371 1008.24 268.804C1006.92 268.237 1005.36 268.625 1003.56 269.969L988.473 281.243C987.742 281.789 987.328 282.289 987.228 282.742C987.129 283.195 987.418 283.567 988.095 283.858ZM1027.33 270.698L1035.79 274.329L1032.37 276.879C1034 276.156 1035.65 275.775 1037.33 275.734C1039.07 275.687 1040.71 275.995 1042.26 276.659L1036.1 281.257C1034.91 280.745 1033.44 280.294 1031.68 279.902C1029.98 279.504 1028.93 279.451 1028.54 279.745L1004.94 297.381L996.477 293.751L1027.33 270.698ZM1023.29 305.801L1027.35 307.543C1027.93 307.792 1028.43 307.759 1028.85 307.444C1029.05 307.298 1029.19 307.175 1029.27 307.077L1053.97 282.132L1062.04 285.597L1048.59 297.524L1041.7 303.588L1050.29 298.25L1067.22 287.816L1075.34 291.302L1036.31 312.73C1034.88 313.536 1033.53 313.997 1032.26 314.112C1030.99 314.263 1029.62 314.02 1028.13 313.384L1018.61 309.296L1023.29 305.801ZM1056.67 319.979C1049.61 316.95 1049.27 313.052 1055.65 308.286L1068.04 299.027C1070.96 296.844 1074.22 295.513 1077.8 295.034C1081.44 294.549 1084.91 295.011 1088.2 296.422C1091.48 297.833 1093.19 299.59 1093.32 301.694C1093.51 303.791 1092.14 305.931 1089.22 308.114L1076.83 317.373C1070.45 322.139 1063.73 323.008 1056.67 319.979ZM1062.36 315.727C1063.04 316.018 1063.75 316.074 1064.49 315.898C1065.24 315.721 1065.97 315.36 1066.7 314.814L1081.79 303.54C1083.59 302.196 1083.83 301.241 1082.51 300.674C1081.18 300.106 1079.62 300.495 1077.83 301.838L1062.74 313.113C1062.01 313.659 1061.59 314.158 1061.5 314.612C1061.4 315.065 1061.68 315.437 1062.36 315.727ZM1077.22 328.797C1074.58 327.663 1073.45 326.367 1073.83 324.91C1074.23 323.466 1075.8 321.726 1078.53 319.69L1101.5 302.526L1110 306.177L1088.51 322.239C1088.31 322.386 1087.78 322.785 1086.91 323.435C1086.07 324.065 1085.61 324.579 1085.53 324.976C1085.52 325.367 1085.83 325.7 1086.48 325.977C1087.35 326.35 1088.2 326.354 1089.05 325.989C1089.92 325.603 1090.95 324.969 1092.13 324.087L1092.38 323.898L1113.92 307.858L1122.33 311.468L1091.48 334.521L1083.02 330.89L1086.31 328.433C1084.44 329.15 1082.83 329.553 1081.5 329.641C1080.16 329.729 1078.74 329.448 1077.22 328.797Z" fill="white"/>
</svg>
